# xmcd CD database file
#
# Track frame offsets:
#	150
#	14541
#	26974
#	41538
#	56458
#	71552
#	86147
#	96471
#	110588
#	124236
#	137843
#	151820
#	165551
#	179346
#	193714
#	208395
#	221870
#	236429
#	250091
#	264909
#	278114
#	292077
#	306061
#	319417
#	333468
#
# Disc length: 4601 seconds
#
# Revision: 0
# Processed by: cddbd v1.5.1PL0 Copyright (c) Steve Scherf et al.
# Submitted via: CDex 1.50
#
DISCID=8511f719
DTITLE=Ray McKinley - You Came A Long Way From St. Louis
DYEAR=1946
DGENRE=Jazz
TTITLE0=Howdy Friends
TTITLE1=Meet me At No Special Place
TTITLE2=Red Silk Stockings And Green Perfume
TTITLE3=Hangover Square
TTITLE4=Hoodle-Addle
TTITLE5=Jiminy Crickets
TTITLE6=The Turntable Song
TTITLE7=Tumblebug
TTITLE8=Patience And Fortitude
TTITLE9=In The Land Of The Buffalo Nickel
TTITLE10=You Came A Long Way From St. Louis
TTITLE11=I Gotta Have My Baby Back
TTITLE12=Thou Swell
TTITLE13=Cincinnati
TTITLE14=For You My Love
TTITLE15=Sam, Don't Slam The Door!
TTITLE16=Mama's Gone, Goodbye
TTITLE17=Every Night Is Saturday Night
TTITLE18=The Lonesomest Whistle
TTITLE19=Cane Bottom Chair
TTITLE20=The Missouri Walking Preacher
TTITLE21=Tambourine
TTITLE22=Similau
TTITLE23=Arizay
TTITLE24=The Blue Room
EXTD=YEAR: 1946
EXTT0=
EXTT1=
EXTT2=
EXTT3=
EXTT4=
EXTT5=
EXTT6=
EXTT7=
EXTT8=
EXTT9=
EXTT10=
EXTT11=
EXTT12=
EXTT13=
EXTT14=
EXTT15=
EXTT16=
EXTT17=
EXTT18=
EXTT19=
EXTT20=
EXTT21=
EXTT22=
EXTT23=
EXTT24=
PLAYORDER=
